<svg xmlns="http://www.w3.org/2000/svg" viewBox="0 0 1440 320">
  <style>
    @keyframes translateX {
      0% {
        transform: translateX(0%);
      }
      100% {
        transform: translateX(-50%);
      }
    }
    

    svg {
    display: flex;
    width: 100%;
    height: auto;
    animation: translateX 10s ease-in-out infinite alternate;
    } 
  </style>


  <path fill="#b682f4" fill-opacity="1"
    d="M0,64L48,80C96,96,192,128,288,122.7C384,117,480,75,576,69.3C672,64,768,96,864,133.3C960,171,1056,213,1152,208C1248,203,1344,149,1392,122.7L1440,96L1440,320L1392,320C1344,320,1248,320,1152,320C1056,320,960,320,864,320C768,320,672,320,576,320C480,320,384,320,288,320C192,320,96,320,48,320L0,320Z"></path>
</svg>